<?xml version="1.0" encoding="UTF-8" standalone="no"?>
<!DOCTYPE svg PUBLIC "-//W3C//DTD SVG 1.1//EN" "http://www.w3.org/Graphics/SVG/1.1/DTD/svg11.dtd">
<svg width="100%" height="100%" viewBox="0 0 76 67" version="1.1" xmlns="http://www.w3.org/2000/svg" xmlns:xlink="http://www.w3.org/1999/xlink" xml:space="preserve" xmlns:serif="http://www.serif.com/" style="fill-rule:evenodd;clip-rule:evenodd;stroke-linejoin:round;stroke-miterlimit:2;">
    <g transform="matrix(1,0,0,1,-528.223022,-241.876284)">
        <g transform="matrix(0.081502,0,0,0.079687,519.74752,234.632688)">
            <path d="M326.833,562.493C327.142,558.052 363.665,494.444 369.885,483.302L441.565,354.636C456.204,328.291 471.423,301.39 485.519,274.824C483.378,265.208 469.67,231.929 464.281,224.101C458.668,223.73 451.693,224.047 445.907,223.835C424.138,223.04 402.08,223.732 380.346,222.828C371.822,207.017 356.804,178.769 350.226,162.811C349.928,159.636 349.64,153.714 350.777,150.76C357.384,133.607 369.221,117.022 378.711,101.458C386.617,88.493 403.567,91.313 416.584,90.999C425.724,90.779 435.362,90.995 444.588,90.996L488.71,91.016C502.293,91.026 516.892,90.578 530.298,93.256C540.083,95.211 546.753,99.878 554.518,105.66C558.823,109.495 563.747,115.028 566.446,120.117C577.207,140.411 587.655,161.055 598.291,181.412L677.898,335.955L747.906,472.234L766.068,507.639C776.07,526.875 785.797,539.255 778.885,561.957C771.725,582.373 761.847,603.657 750.267,621.936C746.907,627.24 737.227,632.355 731.042,632.453C716.065,632.691 701.004,632.561 686.007,632.547L593.202,632.554L460.651,633.049C441.163,633.075 416.765,633.777 397.57,632.957C392.21,632.759 386.908,631.754 381.859,629.942C377.897,628.52 370.65,623.765 368.451,620.714C360.513,609.699 331.667,573.035 327.077,563.037L326.833,562.493ZM597.841,506.134C593.343,498.448 588.235,487.966 584.048,479.952L558.859,431.853C546.92,454.741 531.738,485.578 518.84,507.272C527.037,507.26 594.728,507.469 597.841,506.134Z" style="fill:rgb(26,108,184);fill-rule:nonzero;"/>
        </g>
        <g transform="matrix(0.081502,0,0,0.079687,519.74752,234.632688)">
            <path d="M591.277,367.494C604.141,392.156 616.502,418.079 630.488,442.014C653.663,481.675 675.425,521.749 697.552,561.957C701.91,561.944 707.651,561.777 711.889,561.989C731.378,561.633 759.455,561.269 778.885,561.957C771.725,582.373 761.848,603.657 750.267,621.936C746.907,627.24 737.227,632.355 731.042,632.453C716.065,632.692 701.004,632.561 686.007,632.547L593.202,632.554L460.651,633.049C441.163,633.075 416.765,633.777 397.57,632.957C392.21,632.759 386.912,631.743 381.859,629.942C377.9,628.511 370.65,623.765 368.451,620.714C360.513,609.699 331.667,573.035 327.077,563.037L326.833,562.493C330.972,561.53 349.733,561.908 354.873,561.918L407.71,561.939C470.742,562.102 534.594,561.261 597.523,562.014C606.719,561.493 620.573,561.95 630.109,561.975C625.733,554.273 601.409,508.892 597.841,506.134C593.343,498.448 588.235,487.966 584.048,479.952L558.859,431.853C562.292,423.28 569.61,409.722 574.047,401.133C579.461,390.653 585.592,377.61 591.277,367.494Z" style="fill:rgb(0,39,76);fill-rule:nonzero;"/>
        </g>
        <g transform="matrix(0.081502,0,0,0.079687,519.74752,234.632688)">
            <path d="M561.287,275.094C561.565,278.888 418.654,542.395 407.71,561.939L354.873,561.918C349.733,561.908 330.972,561.53 326.833,562.493C327.142,558.052 363.665,494.444 369.885,483.302L441.565,354.636C456.204,328.291 471.423,301.39 485.519,274.824C503.403,276.127 523.273,274.137 541.341,275.22C544.862,275.431 558.412,275.806 561.287,275.094Z" style="fill:rgb(0,79,147);fill-rule:nonzero;"/>
        </g>
        <g transform="matrix(0.081502,0,0,0.079687,519.74752,234.632688)">
            <path d="M437.594,162.653C444.193,163.134 453.202,162.897 459.952,162.913C473.203,162.918 486.454,162.994 499.705,163.14C520.65,195.977 543.955,240.212 561.287,275.094C558.412,275.806 544.862,275.431 541.341,275.22C523.273,274.137 503.403,276.127 485.519,274.824C483.378,265.208 469.67,231.929 464.281,224.101C458.668,223.73 451.693,224.047 445.907,223.835C424.138,223.04 402.08,223.732 380.346,222.828C371.822,207.017 356.804,178.769 350.226,162.811C379.155,162.354 408.599,162.804 437.594,162.653Z" style="fill:rgb(0,39,76);fill-rule:nonzero;"/>
        </g>
        <g transform="matrix(0.081502,0,0,0.079687,519.74752,234.632688)">
            <path d="M350.226,162.811C349.928,159.636 349.64,153.714 350.777,150.76C357.384,133.607 369.221,117.022 378.711,101.458C386.617,88.493 403.567,91.313 416.584,90.999C425.724,90.779 435.362,90.995 444.588,90.996L488.71,91.016C502.293,91.026 516.892,90.578 530.298,93.256C540.083,95.211 546.753,99.878 554.518,105.66C542.44,118.033 530.836,131.292 518.894,143.805C513.342,149.622 506.411,157.407 500.511,162.756C486.15,162.446 471.784,162.321 457.419,162.381C453.512,162.376 440.839,162.149 437.594,162.653C408.599,162.804 379.155,162.354 350.226,162.811Z" style="fill:rgb(9,139,223);fill-rule:nonzero;"/>
        </g>
        <g transform="matrix(0.147689,0,0,0.173168,462.755834,227.646134)">
            <path d="M443.278,418.823L443.278,341.21L464.609,341.21L464.609,401.423L500.534,401.423L500.534,418.823L443.278,418.823Z" style="fill:white;fill-rule:nonzero;"/>
            <path d="M503.232,418.823L536.508,341.21L557.51,341.21L590.82,418.823L568.695,418.823L542.66,351.943L551.029,351.943L524.994,418.823L503.232,418.823ZM521.423,403.713L526.913,387.549L563.717,387.549L569.242,403.713L521.423,403.713Z" style="fill:white;fill-rule:nonzero;"/>
            <path d="M599.088,418.823L599.088,341.21L616.633,341.21L647.78,394.013L638.537,394.013L668.955,341.21L686.5,341.21L686.682,418.823L667.043,418.823L666.861,371.973L670.22,371.973L647.523,411.185L638.064,411.185L614.674,371.973L618.728,371.973L618.728,418.823L599.088,418.823Z" style="fill:white;fill-rule:nonzero;"/>
            <path d="M703.948,418.823L703.948,341.21L742.441,341.21C752.358,341.21 759.753,343.086 764.627,346.836C769.502,350.585 771.939,355.461 771.939,361.466C771.939,365.453 770.925,368.957 768.896,371.978C766.869,375 764.007,377.363 760.311,379.069C756.614,380.774 752.213,381.626 747.107,381.626L749.195,376.361C754.5,376.361 759.127,377.189 763.074,378.844C767.022,380.498 770.095,382.903 772.294,386.061C774.493,389.219 775.593,393.041 775.593,397.528C775.593,404.231 772.967,409.456 767.715,413.203C762.464,416.95 754.757,418.823 744.594,418.823L703.948,418.823ZM724.982,403.006L742.909,403.006C746.577,403.006 749.356,402.357 751.245,401.059C753.135,399.759 754.08,397.779 754.08,395.118C754.08,392.457 753.135,390.472 751.245,389.162C749.356,387.852 746.577,387.198 742.909,387.198L723.493,387.198L723.493,372.068L739.665,372.068C743.248,372.068 745.938,371.432 747.733,370.159C749.528,368.885 750.426,367.015 750.426,364.548C750.426,362.03 749.528,360.148 747.733,358.9C745.938,357.652 743.248,357.027 739.665,357.027L724.982,357.027L724.982,403.006Z" style="fill:white;fill-rule:nonzero;"/>
            <path d="M788.891,418.823L788.891,341.21L824.529,341.21C832.838,341.21 840.147,342.799 846.456,345.975C852.766,349.151 857.693,353.627 861.237,359.404C864.781,365.18 866.553,372.051 866.553,380.017C866.553,387.93 864.781,394.788 861.237,400.591C857.693,406.393 852.766,410.883 846.456,414.059C840.147,417.235 832.838,418.823 824.529,418.823L788.891,418.823ZM810.222,401.346L823.587,401.346C827.91,401.346 831.674,400.501 834.878,398.81C838.082,397.119 840.576,394.67 842.362,391.463C844.147,388.254 845.04,384.439 845.04,380.017C845.04,375.52 844.147,371.687 842.362,368.517C840.576,365.345 838.082,362.914 834.878,361.223C831.674,359.533 827.91,358.687 823.587,358.687L810.222,358.687L810.222,401.346Z" style="fill:white;fill-rule:nonzero;"/>
            <path d="M869.154,418.823L902.43,341.21L923.432,341.21L956.743,418.823L934.617,418.823L908.582,351.943L916.951,351.943L890.916,418.823L869.154,418.823ZM887.345,403.713L892.835,387.549L929.639,387.549L935.164,403.713L887.345,403.713Z" style="fill:white;fill-rule:nonzero;"/>
        </g>
        <g transform="matrix(0.164292,0,0,0.192636,431.223211,234.765951)">
            <rect x="592.859" y="351.287" width="4.124" height="29.306" style="fill:white;fill-rule:nonzero;"/>
            <path d="M621.116,380.593L621.116,351.287L624.529,351.287L651.695,376.759L649.897,376.759L649.897,351.287L654.02,351.287L654.02,380.593L650.607,380.593L623.44,355.12L625.24,355.12L625.24,380.593L621.116,380.593Z" style="fill:white;fill-rule:nonzero;"/>
            <path d="M695.4,380.861C692.409,380.861 689.649,380.491 687.118,379.752C684.589,379.012 682.389,377.968 680.518,376.621C678.647,375.273 677.195,373.694 676.161,371.884C675.126,370.074 674.609,368.093 674.609,365.94C674.609,363.787 675.126,361.805 676.161,359.995C677.195,358.186 678.653,356.607 680.534,355.259C682.415,353.911 684.621,352.867 687.15,352.128C689.68,351.388 692.451,351.018 695.464,351.018C698.447,351.018 701.191,351.373 703.695,352.082C706.2,352.791 708.34,353.853 710.114,355.266L707.525,357.229C705.851,356.008 704.025,355.129 702.048,354.591C700.072,354.052 697.93,353.783 695.623,353.783C693.203,353.783 690.963,354.087 688.905,354.697C686.847,355.305 685.057,356.158 683.535,357.254C682.014,358.35 680.838,359.635 680.009,361.111C679.179,362.586 678.765,364.195 678.765,365.94C678.765,367.668 679.179,369.27 680.009,370.746C680.838,372.221 682.014,373.51 683.535,374.614C685.057,375.718 686.841,376.574 688.889,377.183C690.937,377.792 693.171,378.097 695.592,378.097C697.813,378.097 699.931,377.841 701.945,377.331C703.96,376.819 705.809,375.969 707.492,374.781L709.858,377.117C707.999,378.357 705.807,379.291 703.281,379.919C700.755,380.547 698.128,380.861 695.4,380.861ZM709.858,377.117L705.886,376.724L705.886,365.925L709.858,365.925L709.858,377.117Z" style="fill:white;fill-rule:nonzero;"/>
            <path d="M732.905,380.593L732.905,351.287L759.918,351.287L759.918,353.98L737.029,353.98L737.029,377.9L760.73,377.9L760.73,380.593L732.905,380.593ZM736.62,367.032L736.62,364.387L757.448,364.387L757.448,367.032L736.62,367.032Z" style="fill:white;fill-rule:nonzero;"/>
            <path d="M781.819,380.593L781.819,351.287L785.233,351.287L812.399,376.759L810.6,376.759L810.6,351.287L814.724,351.287L814.724,380.593L811.311,380.593L784.144,355.12L785.943,355.12L785.943,380.593L781.819,380.593Z" style="fill:white;fill-rule:nonzero;"/>
            <rect x="838.84" y="351.287" width="4.124" height="29.306" style="fill:white;fill-rule:nonzero;"/>
            <path d="M867.097,380.593L867.097,351.287L894.11,351.287L894.11,353.98L871.221,353.98L871.221,377.9L894.922,377.9L894.922,380.593L867.097,380.593ZM870.812,367.032L870.812,364.387L891.64,364.387L891.64,367.032L870.812,367.032Z" style="fill:white;fill-rule:nonzero;"/>
            <path d="M916.011,380.593L916.011,351.287L930.724,351.287C935.735,351.287 939.673,352.171 942.54,353.939C945.407,355.706 946.841,358.166 946.841,361.319C946.841,363.392 946.195,365.175 944.903,366.668C943.612,368.16 941.764,369.306 939.36,370.105C936.957,370.904 934.078,371.304 930.724,371.304L918.289,371.304L920.135,369.884L920.135,380.593L916.011,380.593ZM942.902,380.593L932.762,369.959L937.294,369.959L947.467,380.593L942.902,380.593ZM920.135,370.132L918.289,368.658L930.645,368.658C934.58,368.658 937.571,368.014 939.616,366.727C941.662,365.438 942.685,363.636 942.685,361.319C942.685,358.974 941.662,357.165 939.616,355.891C937.571,354.617 934.58,353.98 930.645,353.98L918.289,353.98L920.135,352.482L920.135,370.132Z" style="fill:white;fill-rule:nonzero;"/>
            <path d="M985.163,380.861C982.193,380.861 979.445,380.487 976.918,379.74C974.392,378.992 972.198,377.944 970.335,376.597C968.473,375.249 967.024,373.672 965.99,371.866C964.956,370.06 964.439,368.084 964.439,365.94C964.439,363.795 964.956,361.82 965.99,360.014C967.024,358.207 968.474,356.629 970.339,355.28C972.204,353.929 974.397,352.882 976.915,352.136C979.435,351.391 982.182,351.018 985.156,351.018C988.131,351.018 990.874,351.39 993.387,352.132C995.9,352.875 998.087,353.918 999.947,355.263C1001.808,356.608 1003.256,358.186 1004.29,359.998C1005.325,361.81 1005.842,363.791 1005.842,365.942C1005.842,368.094 1005.325,370.074 1004.29,371.884C1003.256,373.694 1001.808,375.271 999.947,376.616C998.087,377.961 995.9,379.005 993.387,379.748C990.874,380.49 988.133,380.861 985.163,380.861ZM985.156,378.097C987.518,378.097 989.703,377.794 991.712,377.189C993.722,376.583 995.472,375.73 996.962,374.628C998.453,373.527 999.613,372.24 1000.442,370.768C1001.272,369.296 1001.687,367.684 1001.687,365.933C1001.687,364.181 1001.273,362.572 1000.446,361.106C999.619,359.64 998.46,358.356 996.968,357.254C995.477,356.151 993.725,355.297 991.715,354.691C989.704,354.086 987.518,353.783 985.156,353.783C982.795,353.783 980.606,354.086 978.59,354.693C976.575,355.299 974.819,356.154 973.324,357.257C971.828,358.36 970.666,359.646 969.837,361.113C969.009,362.58 968.594,364.186 968.594,365.932C968.594,367.678 969.008,369.287 969.836,370.759C970.664,372.231 971.825,373.52 973.318,374.628C974.812,375.734 976.568,376.589 978.587,377.193C980.605,377.795 982.795,378.097 985.156,378.097Z" style="fill:white;fill-rule:nonzero;"/>
            <path d="M1037.319,380.861C1034.36,380.861 1031.545,380.502 1028.874,379.784C1026.203,379.065 1024.126,378.146 1022.643,377.024L1024.292,374.654C1025.7,375.663 1027.572,376.509 1029.907,377.191C1032.241,377.874 1034.704,378.215 1037.295,378.215C1039.764,378.215 1041.775,377.985 1043.329,377.526C1044.883,377.066 1046.032,376.444 1046.776,375.659C1047.52,374.873 1047.892,373.999 1047.892,373.036C1047.892,371.893 1047.452,370.976 1046.572,370.283C1045.694,369.59 1044.535,369.038 1043.098,368.629C1041.66,368.219 1040.081,367.866 1038.36,367.569C1036.639,367.272 1034.914,366.944 1033.185,366.585C1031.455,366.226 1029.872,365.759 1028.434,365.184C1026.997,364.607 1025.839,363.833 1024.959,362.861C1024.081,361.888 1023.641,360.626 1023.641,359.075C1023.641,357.633 1024.154,356.302 1025.179,355.083C1026.205,353.864 1027.785,352.882 1029.919,352.136C1032.054,351.391 1034.787,351.018 1038.12,351.018C1040.349,351.018 1042.555,351.251 1044.739,351.716C1046.922,352.181 1048.801,352.826 1050.375,353.651L1048.927,356.1C1047.266,355.266 1045.489,354.652 1043.596,354.257C1041.704,353.862 1039.876,353.664 1038.112,353.664C1035.734,353.664 1033.772,353.905 1032.226,354.387C1030.68,354.868 1029.545,355.505 1028.82,356.299C1028.095,357.092 1027.733,357.983 1027.733,358.974C1027.733,360.129 1028.172,361.053 1029.052,361.747C1029.931,362.44 1031.09,362.987 1032.527,363.388C1033.964,363.79 1035.547,364.143 1037.276,364.448C1039.006,364.753 1040.731,365.084 1042.452,365.441C1044.173,365.798 1045.753,366.26 1047.19,366.828C1048.627,367.396 1049.785,368.16 1050.665,369.121C1051.544,370.082 1051.984,371.323 1051.984,372.846C1051.984,374.272 1051.462,375.595 1050.417,376.814C1049.373,378.034 1047.765,379.013 1045.595,379.752C1043.426,380.491 1040.667,380.861 1037.319,380.861Z" style="fill:white;fill-rule:nonzero;"/>
        </g>
    </g>
</svg>
