<?xml version="1.0" encoding="UTF-8" standalone="no"?>
<!DOCTYPE svg PUBLIC "-//W3C//DTD SVG 1.1//EN" "http://www.w3.org/Graphics/SVG/1.1/DTD/svg11.dtd">
<svg width="100%" height="100%" viewBox="0 0 38 44" version="1.1" xmlns="http://www.w3.org/2000/svg" xmlns:xlink="http://www.w3.org/1999/xlink" xml:space="preserve" xmlns:serif="http://www.serif.com/" style="fill-rule:evenodd;clip-rule:evenodd;stroke-linejoin:round;stroke-miterlimit:2;">
    <g transform="matrix(1,0,0,1,-546.385027,-241.876284)">
        <g transform="matrix(0.081502,0,0,0.079687,519.74752,234.632688)">
            <path d="M326.833,562.493C327.142,558.052 363.665,494.444 369.885,483.302L441.565,354.636C456.204,328.291 471.423,301.39 485.519,274.824C483.378,265.208 469.67,231.929 464.281,224.101C458.668,223.73 451.693,224.047 445.907,223.835C424.138,223.04 402.08,223.732 380.346,222.828C371.822,207.017 356.804,178.769 350.226,162.811C349.928,159.636 349.64,153.714 350.777,150.76C357.384,133.607 369.221,117.022 378.711,101.458C386.617,88.493 403.567,91.313 416.584,90.999C425.724,90.779 435.362,90.995 444.588,90.996L488.71,91.016C502.293,91.026 516.892,90.578 530.298,93.256C540.083,95.211 546.753,99.878 554.518,105.66C558.823,109.495 563.747,115.028 566.446,120.117C577.207,140.411 587.655,161.055 598.291,181.412L677.898,335.955L747.906,472.234L766.068,507.639C776.07,526.875 785.797,539.255 778.885,561.957C771.725,582.373 761.847,603.657 750.267,621.936C746.907,627.24 737.227,632.355 731.042,632.453C716.065,632.691 701.004,632.561 686.007,632.547L593.202,632.554L460.651,633.049C441.163,633.075 416.765,633.777 397.57,632.957C392.21,632.759 386.908,631.754 381.859,629.942C377.897,628.52 370.65,623.765 368.451,620.714C360.513,609.699 331.667,573.035 327.077,563.037L326.833,562.493ZM597.841,506.134C593.343,498.448 588.235,487.966 584.048,479.952L558.859,431.853C546.92,454.741 531.738,485.578 518.84,507.272C527.037,507.26 594.728,507.469 597.841,506.134Z" style="fill:rgb(26,108,184);fill-rule:nonzero;"/>
        </g>
        <g transform="matrix(0.081502,0,0,0.079687,519.74752,234.632688)">
            <path d="M591.277,367.494C604.141,392.156 616.502,418.079 630.488,442.014C653.663,481.675 675.425,521.749 697.552,561.957C701.91,561.944 707.651,561.777 711.889,561.989C731.378,561.633 759.455,561.269 778.885,561.957C771.725,582.373 761.848,603.657 750.267,621.936C746.907,627.24 737.227,632.355 731.042,632.453C716.065,632.692 701.004,632.561 686.007,632.547L593.202,632.554L460.651,633.049C441.163,633.075 416.765,633.777 397.57,632.957C392.21,632.759 386.912,631.743 381.859,629.942C377.9,628.511 370.65,623.765 368.451,620.714C360.513,609.699 331.667,573.035 327.077,563.037L326.833,562.493C330.972,561.53 349.733,561.908 354.873,561.918L407.71,561.939C470.742,562.102 534.594,561.261 597.523,562.014C606.719,561.493 620.573,561.95 630.109,561.975C625.733,554.273 601.409,508.892 597.841,506.134C593.343,498.448 588.235,487.966 584.048,479.952L558.859,431.853C562.292,423.28 569.61,409.722 574.047,401.133C579.461,390.653 585.592,377.61 591.277,367.494Z" style="fill:rgb(0,39,76);fill-rule:nonzero;"/>
        </g>
        <g transform="matrix(0.081502,0,0,0.079687,519.74752,234.632688)">
            <path d="M561.287,275.094C561.565,278.888 418.654,542.395 407.71,561.939L354.873,561.918C349.733,561.908 330.972,561.53 326.833,562.493C327.142,558.052 363.665,494.444 369.885,483.302L441.565,354.636C456.204,328.291 471.423,301.39 485.519,274.824C503.403,276.127 523.273,274.137 541.341,275.22C544.862,275.431 558.412,275.806 561.287,275.094Z" style="fill:rgb(0,79,147);fill-rule:nonzero;"/>
        </g>
        <g transform="matrix(0.081502,0,0,0.079687,519.74752,234.632688)">
            <path d="M437.594,162.653C444.193,163.134 453.202,162.897 459.952,162.913C473.203,162.918 486.454,162.994 499.705,163.14C520.65,195.977 543.955,240.212 561.287,275.094C558.412,275.806 544.862,275.431 541.341,275.22C523.273,274.137 503.403,276.127 485.519,274.824C483.378,265.208 469.67,231.929 464.281,224.101C458.668,223.73 451.693,224.047 445.907,223.835C424.138,223.04 402.08,223.732 380.346,222.828C371.822,207.017 356.804,178.769 350.226,162.811C379.155,162.354 408.599,162.804 437.594,162.653Z" style="fill:rgb(0,39,76);fill-rule:nonzero;"/>
        </g>
        <g transform="matrix(0.081502,0,0,0.079687,519.74752,234.632688)">
            <path d="M350.226,162.811C349.928,159.636 349.64,153.714 350.777,150.76C357.384,133.607 369.221,117.022 378.711,101.458C386.617,88.493 403.567,91.313 416.584,90.999C425.724,90.779 435.362,90.995 444.588,90.996L488.71,91.016C502.293,91.026 516.892,90.578 530.298,93.256C540.083,95.211 546.753,99.878 554.518,105.66C542.44,118.033 530.836,131.292 518.894,143.805C513.342,149.622 506.411,157.407 500.511,162.756C486.15,162.446 471.784,162.321 457.419,162.381C453.512,162.376 440.839,162.149 437.594,162.653C408.599,162.804 379.155,162.354 350.226,162.811Z" style="fill:rgb(9,139,223);fill-rule:nonzero;"/>
        </g>
    </g>
</svg>
