<?xml version="1.0" encoding="UTF-8" standalone="no"?><!DOCTYPE svg PUBLIC "-//W3C//DTD SVG 1.1//EN" "http://www.w3.org/Graphics/SVG/1.1/DTD/svg11.dtd"><svg width="100%" height="100%" viewBox="0 0 317 280" version="1.1" xmlns="http://www.w3.org/2000/svg" xmlns:xlink="http://www.w3.org/1999/xlink" xml:space="preserve" xmlns:serif="http://www.serif.com/" style="fill-rule:evenodd;clip-rule:evenodd;stroke-linejoin:round;stroke-miterlimit:2;"><g><g><path d="M90.4,153.3c0.1,-1.3 11,-19.7 12.9,-23l21.4,-37.3c4.4,-7.6 8.9,-15.4 13.1,-23.1c-0.6,-2.8 -4.7,-12.4 -6.4,-14.7c-1.7,-0.1 -3.8,-0 -5.5,-0.1c-6.5,-0.2 -13.1,-0 -19.6,-0.3c-2.5,-4.6 -7,-12.8 -9,-17.4c-0.1,-0.9 -0.2,-2.6 0.2,-3.5c2,-5 5.5,-9.8 8.4,-14.3c2.4,-3.8 7.4,-2.9 11.3,-3c2.7,-0.1 5.6,-0 8.4,-0l13.2,0c4.1,0 8.4,-0.1 12.4,0.6c2.9,0.6 4.9,1.9 7.2,3.6c1.3,1.1 2.8,2.7 3.6,4.2c3.2,5.9 6.3,11.9 9.5,17.8l23.8,44.8l20.9,39.5l5.4,10.3c3,5.6 5.9,9.2 3.8,15.8c-2.1,5.9 -5.1,12.1 -8.6,17.4c-1,1.5 -3.9,3 -5.8,3c-4.5,0.1 -9,0 -13.5,0l-27.8,0l-39.6,0.1c-5.8,0 -13.1,0.2 -18.9,-0c-1.6,-0.1 -3.2,-0.3 -4.7,-0.9c-1.2,-0.4 -3.4,-1.8 -4,-2.7c-2.4,-3.2 -11,-13.8 -12.4,-16.7l-0.1,-0.2Zm81.1,-16.3c-1.3,-2.2 -2.9,-5.3 -4.1,-7.6l-7.5,-13.9c-3.6,6.6 -8.1,15.6 -12,21.9c2.5,-0 22.7,0.1 23.6,-0.3Z" style="fill:#1a6cb8;fill-rule:nonzero;"/></g><g><path d="M169.5,96.8c3.8,7.2 7.5,14.7 11.7,21.6c6.9,11.5 13.4,23.1 20.1,34.8c1.3,-0 3,-0.1 4.3,0c5.8,-0.1 14.2,-0.2 20,-0c-2.1,5.9 -5.1,12.1 -8.6,17.4c-1,1.5 -3.9,3 -5.8,3c-4.5,0.1 -9,0 -13.5,0l-27.8,0l-39.6,0.1c-5.8,0 -13.1,0.2 -18.9,-0c-1.6,-0.1 -3.2,-0.4 -4.7,-0.9c-1.2,-0.4 -3.4,-1.8 -4,-2.7c-2.4,-3.2 -11,-13.8 -12.4,-16.7l-0.1,-0.2c1.2,-0.3 6.8,-0.2 8.4,-0.2l15.8,0c18.9,0 38,-0.2 56.8,0c2.8,-0.2 6.9,-0 9.7,-0c-1.3,-2.2 -8.6,-15.4 -9.7,-16.2c-1.3,-2.2 -2.9,-5.3 -4.1,-7.6l-7.5,-13.9c1,-2.5 3.2,-6.4 4.5,-8.9c1.6,-3 3.5,-6.8 5.2,-9.8Z" style="fill:#00274c;fill-rule:nonzero;"/></g><g><path d="M160.5,70c0.1,1.1 -42.7,77.5 -45.9,83.2l-15.8,-0c-1.5,-0 -7.1,-0.1 -8.4,0.2c0.1,-1.3 11,-19.7 12.9,-23l21.4,-37.3c4.4,-7.6 8.9,-15.4 13.1,-23.1c5.3,0.4 11.3,-0.2 16.7,0.1c1.1,0.1 5.1,0.2 6,-0Z" style="fill:#004f93;fill-rule:nonzero;"/></g><g><path d="M123.5,37.4c2,0.1 4.7,0.1 6.7,0.1c4,0 7.9,0 11.9,0.1c6.3,9.5 13.2,22.4 18.4,32.5c-0.9,0.2 -4.9,0.1 -6,0c-5.4,-0.3 -11.3,0.3 -16.7,-0.1c-0.6,-2.8 -4.7,-12.4 -6.4,-14.7c-1.7,-0.1 -3.8,-0 -5.5,-0.1c-6.5,-0.2 -13.1,-0 -19.6,-0.3c-2.5,-4.6 -7,-12.8 -9,-17.4c8.7,-0.1 17.5,-0 26.1,-0Z" style="fill:#00274c;fill-rule:nonzero;"/></g><g><path d="M97.4,37.4c-0.1,-0.9 -0.2,-2.6 0.2,-3.5c2,-5 5.5,-9.8 8.4,-14.3c2.4,-3.8 7.4,-2.9 11.3,-3c2.7,-0.1 5.6,-0 8.4,-0l13.2,0c4.1,0 8.4,-0.1 12.4,0.6c2.9,0.6 4.9,1.9 7.2,3.6c-3.6,3.6 -7.1,7.4 -10.7,11.1c-1.7,1.7 -3.7,3.9 -5.5,5.5c-4.3,-0.1 -8.6,-0.1 -12.9,-0.1c-1.2,-0 -5,-0.1 -5.9,0.1c-8.7,0 -17.5,-0.1 -26.1,0Z" style="fill:#098bdf;fill-rule:nonzero;"/></g><g><path d="M0,242.9l0,-56l13.1,0l0,43.4l22.1,0l0,12.6l-35.2,0Z" style="fill:#fff;fill-rule:nonzero;"/><path d="M36.9,242.9l20.5,-56l12.9,0l20.5,56l-13.6,0l-16,-48.3l5.2,0l-16,48.3l-13.4,0Zm11.2,-10.9l3.4,-11.7l22.6,0l3.4,11.7l-29.4,0Z" style="fill:#fff;fill-rule:nonzero;"/><path d="M95.9,242.9l0,-56l10.8,0l19.2,38.1l-5.7,0l18.7,-38.1l10.8,0l0.1,56l-12.1,0l-0.1,-33.8l2.1,0l-14,28.3l-5.8,0l-14.4,-28.3l2.5,0l0,33.8l-12.1,0Z" style="fill:#fff;fill-rule:nonzero;"/><path d="M160.4,242.9l0,-56l23.7,0c6.1,0 10.7,1.4 13.7,4.1c3,2.7 4.5,6.2 4.5,10.6c0,2.9 -0.6,5.4 -1.9,7.6c-1.2,2.2 -3,3.9 -5.3,5.1c-2.3,1.2 -5,1.8 -8.1,1.8l1.3,-3.8c3.3,0 6.1,0.6 8.5,1.8c2.4,1.2 4.3,2.9 5.7,5.2c1.4,2.3 2,5 2,8.3c0,4.8 -1.6,8.6 -4.8,11.3c-3.2,2.7 -8,4.1 -14.2,4.1l-25,0Zm12.9,-11.4l11,0c2.3,0 4,-0.5 5.1,-1.4c1.2,-0.9 1.7,-2.4 1.7,-4.3c0,-1.9 -0.6,-3.4 -1.7,-4.3c-1.2,-0.9 -2.9,-1.4 -5.1,-1.4l-11.9,0l0,-10.9l10,0c2.2,0 3.9,-0.5 5,-1.4c1.1,-0.9 1.7,-2.3 1.7,-4c0,-1.8 -0.6,-3.2 -1.7,-4.1c-1.1,-0.9 -2.8,-1.4 -5,-1.4l-9,0l0,33.2Z" style="fill:#fff;fill-rule:nonzero;"/><path d="M212.7,242.9l0,-56l21.9,0c5.1,0 9.6,1.1 13.5,3.4c3.9,2.3 6.9,5.5 9.1,9.7c2.2,4.2 3.3,9.1 3.3,14.9c0,5.7 -1.1,10.7 -3.3,14.8c-2.2,4.2 -5.2,7.4 -9.1,9.7c-3.9,2.3 -8.4,3.4 -13.5,3.4l-21.9,0Zm13.1,-12.6l8.2,0c2.7,0 5,-0.6 6.9,-1.8c2,-1.2 3.5,-3 4.6,-5.3c1.1,-2.3 1.6,-5.1 1.6,-8.3c0,-3.2 -0.5,-6 -1.6,-8.3c-1.1,-2.3 -2.6,-4 -4.6,-5.3c-2,-1.2 -4.3,-1.8 -6.9,-1.8l-8.2,0l0,30.8Z" style="fill:#fff;fill-rule:nonzero;"/><path d="M262.1,242.9l20.5,-56l12.9,0l20.5,56l-13.6,0l-16,-48.3l5.2,0l-16,48.3l-13.4,0Zm11.2,-10.9l3.4,-11.7l22.6,0l3.4,11.7l-29.4,0Z" style="fill:#fff;fill-rule:nonzero;"/></g><g><rect x="1.7" y="252.3" width="2.8" height="23.5" style="fill:#fff;"/><path d="M21,275.9l0,-23.5l2.3,0l18.6,20.4l-1.2,0l0,-20.4l2.8,0l0,23.5l-2.3,0l-18.6,-20.4l1.2,0l0,20.4l-2.8,0Z" style="fill:#fff;fill-rule:nonzero;"/><path d="M71.9,276.1c-2,0 -3.9,-0.3 -5.7,-0.9c-1.7,-0.6 -3.2,-1.4 -4.5,-2.5c-1.3,-1.1 -2.3,-2.3 -3,-3.8c-0.7,-1.5 -1.1,-3 -1.1,-4.8c0,-1.7 0.4,-3.3 1.1,-4.8c0.7,-1.5 1.7,-2.7 3,-3.8c1.3,-1.1 2.8,-1.9 4.5,-2.5c1.7,-0.6 3.6,-0.9 5.7,-0.9c2,0 3.9,0.3 5.6,0.9c1.7,0.6 3.2,1.4 4.4,2.6l-1.8,1.6c-1.1,-1 -2.4,-1.7 -3.7,-2.1c-1.4,-0.4 -2.8,-0.6 -4.4,-0.6c-1.7,0 -3.2,0.2 -4.6,0.7c-1.4,0.5 -2.6,1.2 -3.7,2.1c-1,0.9 -1.8,1.9 -2.4,3.1c-0.6,1.2 -0.9,2.5 -0.9,3.9c0,1.4 0.3,2.7 0.9,3.9c0.6,1.2 1.4,2.2 2.4,3.1c1,0.9 2.3,1.6 3.7,2.1c1.4,0.5 2.9,0.7 4.6,0.7c1.5,0 3,-0.2 4.3,-0.6c1.4,-0.4 2.6,-1.1 3.8,-2l1.6,1.9c-1.3,1 -2.8,1.7 -4.5,2.2c-1.7,0.5 -3.5,0.8 -5.4,0.8Zm9.9,-3l-2.7,-0.3l0,-8.7l2.7,0l0,9Z" style="fill:#fff;fill-rule:nonzero;"/><path d="M97.5,275.9l0,-23.5l18.5,0l0,2.2l-15.7,0l0,19.2l16.2,0l0,2.2l-19,0Zm2.5,-10.9l0,-2.1l14.3,0l0,2.1l-14.3,0Z" style="fill:#fff;fill-rule:nonzero;"/><path d="M131,275.9l0,-23.5l2.3,0l18.6,20.4l-1.2,0l0,-20.4l2.8,0l0,23.5l-2.3,0l-18.6,-20.4l1.2,0l0,20.4l-2.8,0Z" style="fill:#fff;fill-rule:nonzero;"/><rect x="170.1" y="252.3" width="2.8" height="23.5" style="fill:#fff;"/><path d="M189.4,275.9l0,-23.5l18.5,0l0,2.2l-15.7,0l0,19.2l16.2,0l0,2.2l-19,0Zm2.5,-10.9l0,-2.1l14.3,0l0,2.1l-14.3,0Z" style="fill:#fff;fill-rule:nonzero;"/><path d="M222.9,275.9l0,-23.5l10.1,0c3.4,0 6.1,0.7 8.1,2.1c2,1.4 2.9,3.4 2.9,5.9c0,1.7 -0.4,3.1 -1.3,4.3c-0.9,1.2 -2.1,2.1 -3.8,2.8c-1.6,0.6 -3.6,1 -5.9,1l-8.5,0l1.3,-1.1l0,8.6l-2.8,0Zm18.4,0l-6.9,-8.5l3.1,0l7,8.5l-3.1,0Zm-15.6,-8.4l-1.3,-1.2l8.5,0c2.7,0 4.7,-0.5 6.1,-1.5c1.4,-1 2.1,-2.5 2.1,-4.3c0,-1.9 -0.7,-3.3 -2.1,-4.4c-1.4,-1 -3.4,-1.5 -6.1,-1.5l-8.5,0l1.3,-1.2l0,14.2Z" style="fill:#fff;fill-rule:nonzero;"/><path d="M270.2,276.1c-2,0 -3.9,-0.3 -5.6,-0.9c-1.7,-0.6 -3.2,-1.4 -4.5,-2.5c-1.3,-1.1 -2.3,-2.3 -3,-3.8c-0.7,-1.4 -1.1,-3 -1.1,-4.8c0,-1.7 0.4,-3.3 1.1,-4.8c0.7,-1.5 1.7,-2.7 3,-3.8c1.3,-1.1 2.8,-1.9 4.5,-2.5c1.7,-0.6 3.6,-0.9 5.6,-0.9c2,0 3.9,0.3 5.6,0.9c1.7,0.6 3.2,1.4 4.5,2.5c1.3,1.1 2.3,2.3 3,3.8c0.7,1.5 1.1,3 1.1,4.8c0,1.7 -0.4,3.3 -1.1,4.8c-0.7,1.5 -1.7,2.7 -3,3.8c-1.3,1.1 -2.8,1.9 -4.5,2.5c-1.7,0.6 -3.6,0.9 -5.6,0.9Zm-0,-2.2c1.6,0 3.1,-0.2 4.5,-0.7c1.4,-0.5 2.6,-1.2 3.6,-2.1c1,-0.9 1.8,-1.9 2.4,-3.1c0.6,-1.2 0.9,-2.5 0.9,-3.9c0,-1.4 -0.3,-2.7 -0.8,-3.9c-0.6,-1.2 -1.4,-2.2 -2.4,-3.1c-1,-0.9 -2.2,-1.6 -3.6,-2.1c-1.4,-0.5 -2.9,-0.7 -4.5,-0.7c-1.6,0 -3.1,0.2 -4.5,0.7c-1.4,0.5 -2.6,1.2 -3.6,2.1c-1,0.9 -1.8,1.9 -2.4,3.1c-0.6,1.2 -0.9,2.5 -0.9,3.9c0,1.4 0.3,2.7 0.9,3.9c0.6,1.2 1.4,2.2 2.4,3.1c1,0.9 2.2,1.6 3.6,2.1c1.4,0.5 2.9,0.7 4.5,0.7Z" style="fill:#fff;fill-rule:nonzero;"/><path d="M305.9,276.1c-2,0 -4,-0.3 -5.8,-0.9c-1.8,-0.6 -3.3,-1.3 -4.3,-2.2l1.1,-1.9c1,0.8 2.2,1.5 3.8,2c1.6,0.5 3.3,0.8 5.1,0.8c1.7,0 3.1,-0.2 4.1,-0.6c1.1,-0.4 1.9,-0.9 2.4,-1.5c0.5,-0.6 0.8,-1.3 0.8,-2.1c0,-0.9 -0.3,-1.7 -0.9,-2.2c-0.6,-0.6 -1.4,-1 -2.4,-1.3c-1,-0.3 -2.1,-0.6 -3.2,-0.9c-1.2,-0.2 -2.4,-0.5 -3.5,-0.8c-1.2,-0.3 -2.3,-0.7 -3.3,-1.1c-1,-0.5 -1.8,-1.1 -2.4,-1.9c-0.6,-0.8 -0.9,-1.8 -0.9,-3c0,-1.2 0.4,-2.2 1.1,-3.2c0.7,-1 1.8,-1.8 3.2,-2.4c1.5,-0.6 3.3,-0.9 5.6,-0.9c1.5,0 3,0.2 4.5,0.6c1.5,0.4 2.8,0.9 3.9,1.6l-1,2c-1.1,-0.7 -2.4,-1.2 -3.6,-1.5c-1.3,-0.3 -2.5,-0.5 -3.8,-0.5c-1.6,0 -3,0.2 -4,0.6c-1.1,0.4 -1.8,0.9 -2.3,1.5c-0.5,0.6 -0.7,1.4 -0.7,2.1c0,0.9 0.3,1.7 0.9,2.2c0.6,0.6 1.4,1 2.4,1.3c1,0.3 2.1,0.6 3.3,0.9c1.2,0.2 2.4,0.5 3.5,0.8c1.2,0.3 2.3,0.7 3.2,1.1c1,0.5 1.8,1.1 2.4,1.8c0.6,0.8 0.9,1.8 0.9,3c0,1.1 -0.4,2.2 -1.1,3.2c-0.7,1 -1.8,1.8 -3.3,2.4c-1.5,0.6 -3.4,0.9 -5.7,0.9Z" style="fill:#fff;fill-rule:nonzero;"/></g></g></svg>